<svg id="Layer_1" data-name="Layer 1" xmlns="http://www.w3.org/2000/svg" viewBox="0 0 903.48 507.94"><defs><style>.cls-1{fill:#fff;}.cls-2{fill:#f6f6f6;}</style></defs><path class="cls-1" d="M735.83,461.88l.43-30.1c54.26,4.24,169.15-29.25,169.15-29.25C834.19,461,735.83,461.88,735.83,461.88Z"/><path class="cls-1" d="M501.27,402.53S616.16,436,670.42,431.78l.43,30.1S572.49,461,501.27,402.53Z"/><path class="cls-1" d="M705.59,495.51h-5a9,9,0,0,1-8.62-6.45h22.28A9,9,0,0,1,705.59,495.51Z"/><path class="cls-2" d="M687.43,105.85a42,42,0,0,1,6.92,1.37,15.06,15.06,0,0,1,3.39,1.48,5.16,5.16,0,0,1,.68.49l.29.23.38.36c.55.5.94.93,1.38,1.41,3.53,3.85,5.28,8.8,6.19,12.63.47,1.92.74,3.56.92,4.71.08.53.14.94.18,1.25,1.6,18.29.09,47-.58,57.85,5.67,1.57,9.06,8.17,10.89,15.68l102.55-20L715.35,126.85c0-.1-.06-.17-.09-.28-.44-1.23-1.08-3-2-5.06a42.93,42.93,0,0,0-3.8-6.83,28.65,28.65,0,0,0-6.2-6.55c-.61-.46-1.28-1-1.85-1.3l-.45-.29c-.24-.15-.39-.22-.59-.33a8.31,8.31,0,0,0-1.14-.53,17.77,17.77,0,0,0-4.34-1,43.33,43.33,0,0,0-7.41-.1,63.93,63.93,0,0,0-7.06.81A64.67,64.67,0,0,1,687.43,105.85Z"/><path class="cls-2" d="M697.58,189.18c.63-.32,1.24-.6,1.85-.84.4-12.63,1.57-55.36-.73-65a20,20,0,0,0-5.42-9.51C617.55,70.29,507.84,9.34,507.84,9.34S457.24,33,351.54,61.5,18.5,140,18.5,140c47.63,39.5,207.25,99.79,207.25,99.79s-3-39-.48-56.12,29.1-39.74,67-50.74,131.9-40.74,228.16-22.5c71.61,13.57,108,67.7,108,67.7l-4,43.47,61-11.94C686.43,201.24,689.91,193.13,697.58,189.18ZM481.45,32.26,499.08,25l179.11,91.71Z"/><path class="cls-1" d="M705.36,202.62s.31,3.51.72,9.68c.28,4.7.73,10.94,1.16,18.32.37,0,.73-.06,1.11-.07,1.2-.05,9.52,2.77,9.24,4.14a32.84,32.84,0,0,0,.54-4.66c.78-14-3.28-42.45-20.35-32.86-13.52,7.59-11.7,25.93-9.69,38.75,2.25-3.46,6.87-4.33,11-4.73,1.83-.18,3.67-.27,5.5-.38.15-7.45.36-13.76.45-18.49C705.19,206.14,705.36,202.62,705.36,202.62Z"/><path class="cls-1" d="M708.73,262c6.58,1.9,9.13,4,9.13,4l-1.14-24.18a29.66,29.66,0,0,0-9.12-4.55c0,.18,0,.35,0,.53C708,245.13,708.38,253.3,708.73,262Z"/><path class="cls-1" d="M704.49,236.61c-5.21-.77-11.31.27-16.69,6.32l-.73,22.26s9.73-4.18,17.23-4c0-8.38.07-16.26.17-23.33C704.47,237.45,704.48,237,704.49,236.61Z"/><path class="cls-1" d="M719.06,411h-2.5l.61-47q0-30.72.07-61.42c0-5.73,3.07-22,0-27.09a18.89,18.89,0,0,0-8.29-7c.06,1.78.13,3.58.19,5.39.21,6.61.42,13.43.63,20.37s.34,14,.51,21,.21,14.1.31,21,.11,13.77.17,20.38c.06,13.22-2.38,51.87-2.38,51.87s-2-38.57-2.48-51.78c-.2-6.6-.5-13.43-.63-20.37s-.34-14-.5-21-.21-14.1-.32-21-.1-13.77-.15-20.37c0-2.25,0-4.46,0-6.65-4.58-.43-10.37,1-17.34,6.34-2.46,1.88.31,24.11.34,27.08q.44,33.06.85,66.11c.19,14.67.65,29.39.45,44.06h-1.54a8,8,0,0,0-8,8v59.56a8,8,0,0,0,8,8h32a8,8,0,0,0,8-8V419A8,8,0,0,0,719.06,411Z"/><path class="cls-2" d="M595.13,162.06c-2.1,30.34-9.46,137-9.51,141.25s-4.91-120.65-6.13-152.22c-22.23-14.28-53.79-29.2-92.34-33-78.92-7.81-139.87,13.23-177.75,20.8S243.81,165.59,238,175.82s-5,32-5,32l8.77,129.52s14-21.6,82.77-26.51,142.69,39.48,142.69,39.48,14.31-9.95,41.48-21.27c40.25-16.76,95.11-4.6,95.11-4.6l12-144.16A174.75,174.75,0,0,0,595.13,162.06ZM258.35,180C250.67,192.86,247,231.42,247,231.42s-6.38-29.35,1.18-51.75c11.46-24,76.35-34.91,76.35-34.91S269.1,161.88,258.35,180Z"/></svg>