<svg id="Layer_1" data-name="Layer 1" xmlns="http://www.w3.org/2000/svg" viewBox="0 0 1049.63 507.94"><defs><style>.cls-1{fill:#545454;}.cls-2{fill:#8d8d8d;}</style></defs><path class="cls-1" d="M348.25,385.08C359,346,371.2,305.34,378.35,282.55h-.42c-16.5,35.76-62.47,128.11-93.88,191.45H256.2c4.08-54.81,10.33-154.27,13.93-191.6h-.83c-5.95,24.71-18.45,71.61-28.15,108.13L219,474H192.08l58.47-213.12h42.93c-3.82,67.06-7.78,142.33-11.38,169.42h.42c11.6-26.57,55.77-113.06,85.53-169.42h42.63L352.21,474H323.88Z"/><path class="cls-1" d="M479.52,260.88,421.05,474H392.61l58.47-213.12Z"/><path class="cls-1" d="M461.37,474l58.47-213.12h34.69c3,55,9.32,158.51,9.14,170.17h.63c6.67-29.52,13.93-60.24,23.4-95l20.55-75.18H635.8L577.33,474H543.61c-2.55-47.79-9.29-158.71-9.55-174.26h-.41c-5.58,27.06-13.33,59.72-23.85,98.18L489.1,474Z"/><path class="cls-1" d="M704.74,260.88,646.27,474H617.83L676.3,260.88Z"/><path class="cls-1" d="M686.59,474l58.47-213.12h34.7c3,55,9.32,158.51,9.13,170.17h.64c6.66-29.52,13.92-60.24,23.39-95l20.55-75.18H861L802.55,474H768.83c-2.55-47.79-9.29-158.71-9.55-174.26h-.41c-5.58,27.06-13.33,59.72-23.84,98.18L714.32,474Z"/><path class="cls-1" d="M951.64,474H928.25a100.35,100.35,0,0,1,3.55-17.92c-10.7,15.81-25.71,20.77-41.92,20.77-37.62,0-46-23-36-59.66l28.11-102.91c10.15-37.74,26.54-56.53,66.6-56.24,49.59.29,53.3,31.24,46.64,54.64l-1.24,4.44h-28.6l1.2-5.22c4.68-19.14,2.66-34.52-20.81-34.52-16.66,0-26.84,8.07-34.63,36.58L882.88,418.2c-6.74,24.86-4.53,39.27,16.88,39.27,24.78,0,33.65-18.71,42.94-52.87l7.22-26.83H919l5.32-19.49h59.18Z"/><path class="cls-2" d="M243.16,81.83c-12.77,21.29-38.31,51.93-56.18,68.11-6.81,6-8.09,9.79-3.83,11.07,3.4,1.27,18.72-11.92,35.75-31.08,23.84-26.39,40.44-51.5,47.67-71.93a57.79,57.79,0,0,0,3.84-15.33c2.55-22.56-12.77-33.2-42.14-29.79-42.14,4.68-90.24,26-136.22,60-25.11,18.3-41.28,34.47-51.5,51.5-6.39,10.64-6.39,11.07-6.39,23.84s0,13.62,5.54,22.56c11.49,18.73,31.5,32.35,69,46.82,57,22.13,65.12,26.82,65.12,38.31-.42,20-41.71,43.84-96.62,55.76a99.23,99.23,0,0,1-20,2.13c-9.36,0-11.07-.43-14.47-3-10.22-7.66-6.39-18.73,11.92-33.63,20-16.17,41.71-26.81,45.12-22.13,1.7,2.13,6.81,1.7,6.81-.85,0-4.26-5.54-7.67-12.35-7.67C87.8,246.56,72.9,253.8,58,264c-15.75,10.64-22.56,17-27.24,25.11-7.24,13.2-.43,27.24,15.32,31.07l-.42.43c14.9,3.83,54.06-3.83,83.85-16.18,53.21-22.13,69-50.22,39.16-69.38-4.68-3-23-11.07-41.29-18.3-40.86-16.6-51.5-22.14-63.84-32.78C30.33,155.47,38,127.38,90.35,85.67,134.2,50.76,187,25.65,227,21c15.75-2.13,23.84-.86,28.94,4.25,6.39,6.39,4.69,16.18,1.28,27.24C254.66,60.55,250.83,69.07,243.16,81.83Z"/><path class="cls-2" d="M714.77,180.16l.86.43c-3.41,2.13-7.67,5.53-13.2,9.79-19.58,15.75-31.5,22.13-41.29,23-5.11.43-6.38,0-8.09-2.12-2.55-3.84-.85-11.5,4.69-21.71,3.83-6.81,4.25-8.52,2.55-10.22-2.55-2.55-4.26-2.13-8.94,1.7l-4.26,3.41L645,180.16c-2.56-5.11-7.24-7.66-13.2-7.66A30.75,30.75,0,0,0,618.59,176v-.13a8.67,8.67,0,0,0-2.6,1.49c-.13.07-.26.13-.39.21a65,65,0,0,0-12.86,9.76c-1,.78-2,1.51-2.88,2.16-9.37,6.81-24.27,17.87-29,20.85-19.15,11.92-35.75,15.75-42.14,9.79-4.26-3.83-3.4-17,2.13-32.35,4.26-11.49,4.68-12.34,9.79-14,3-.85,9.79-4.26,15.32-7.24,49.81-28.52,83.43-74.49,63.43-86.83C617.31,78.43,616,78,614.75,78s-3,.43-6.38,1.28c-19.15,6-49.8,36.61-69.81,69.81a255.47,255.47,0,0,0-15,28.23c-2.52,1.23-5.79,3.17-10.11,5.82-18.73,11.49-36.6,16.6-50.65,16.6H456l2.13-6c3.83-9.79,3-14.9-3.83-21.28-2.13-1.7-5.54-2.55-8.94-2.55A17.2,17.2,0,0,0,436,172.5a38.37,38.37,0,0,1-6,3c-1,.32-3.39,2.59-6,5.53-1.74,1.15-3.62,2.42-5.5,3.83-37.46,25.54-60.44,34.48-60.44,23.42,0-1.71,2.13-8.52,4.68-14.9s4.26-12.77,3.83-13.62c-2.13-4.69-6-3-21.28,9.36-17,13.62-29.37,22.56-31.5,22.56s-1.7-6.81.85-12.77c1.28-3,4.68-9.36,7.66-14.47,5.11-8.51,5.54-9.37,3.41-11.07-3.72-3-6.47-1.72-11.94,6.61-2.94,1.63-6.58,3.95-11.05,7l-.42-.85c-37.46,25.54-60.45,33.63-76.19,30.22-10.22-2.13-11.92-9.36-4.69-21.71,4.26-7.66,15.75-17.45,19.16-16.6a6.63,6.63,0,0,1,2.55,4.26c1.28,5.11,2.56,6.81,6,6.81,7.24,0,3.83-14.47-4.26-17.45-12.77-4.68-31.49,10.21-36.6,29.37-3,10.64,3.83,20.43,14.9,22.56a35.36,35.36,0,0,1,5.53,1.28c6,1.7,23.84-2.13,36.61-7.67A305.46,305.46,0,0,0,305.58,195c-3.93,9-4.76,15.82-2,19.22,6.39,7.67,16.18,5.11,34.91-9.79L350,195.06l-.85,8.51c-.85,7.67,2.13,16.18,14.47,16.6,9.62.39,27.94-7.92,48.34-21.15-4.45,10.21-3.54,18.76,3.16,23.71,5.54,3.83,10.22,4.25,17.88,1.7,5.54-1.7,17-11.07,18.31-14.47.85-1.7,2.55-2.13,9.79-2.13,17.45,0,34.47-4.26,56.61-17l.78-.45c-3.94,12.07-4.67,21.6-2.06,28.12,2.13,4.68,6.81,9.37,11.06,10.64,10.65,3.41,26.82-.42,46.4-11.49,3.89-2.27,9.21-5.9,14.9-10.09-2.35,6.42-2,11.87,2.12,14.35,7.66,4.68,21.71-.43,41.29-15.33l10.21-7.66v7.24c0,6.38.43,7.66,5.11,11.49,8.51,6.81,19.16,5.53,37.88-5.11,10.22-6,26.39-18.3,34.91-26.81,3-3,4.68-5.11,4.68-6C725,175.05,722.86,174.63,714.77,180.16ZM551.76,144v.43c15.75-23.84,43.84-51.93,57.89-57.89a14,14,0,0,1,4.25-1.28c.85,0,1.28.43,1.71,1.7,2.12,5.54-6.39,22.14-17.88,34.48-9.79,10.64-26.82,24.69-41.29,34.05-7.24,4.69-14.05,8.52-14.9,8.52C539.84,164,544.52,155.05,551.76,144Zm-111.95,66.4a26.3,26.3,0,0,1-8.51,6.39c-6.81,3.4-9.79,3.4-11.92-.43s-.85-9.36,3.83-17.45l3.41-6,3.4,4.68c1.71,2.56,6,5.11,8.94,7.24l3.83,2.13ZM450,191.66h-.43c-.85,3.4-2.12,6.81-3,7.23s-3.4-.42-6-2.13c-3.4-2.55-4.68-4.25-4.68-7.23,0-4.69,4.68-10.22,8.94-10.65h1.28Q452.58,179.53,450,191.66Zm179.19,7.23-.85-.42c-5.54,4.25-14,9.79-18.73,12.77-11.07,6.38-13.62,6.81-12.35,1.27,3-12.34,26.39-32.35,35.76-31.92a3.25,3.25,0,0,1,2.13.85c.85.42,2.12,3,3,5.53C639.43,191.23,639,191.66,629.22,198.89Z"/><path class="cls-2" d="M985.62,184.84H986c-27.67,17.88-51.93,28.52-61.29,28.52-10.22,0-9.37-7.23,2.55-26.39,6.39-10.21,7.24-12.34,5.54-14-1.28-1.28-2.56-2.13-3.84-2.13-2.15,0-4.54,2-8,6.52-4.54,2.48-12.89,8.39-29.5,20.72-25.11,18.73-40.86,24.69-43.42,16.17-3.83-11.91,26-81.3,50.23-117.48,6-8.94,6.38-10.64,3-12.77a6.11,6.11,0,0,0-2.55-.85c-3,0-6.82,4.68-15.75,18.31-23.84,36.18-35.76,53.63-44.27,65.12l-8.94,12.34-5.11-4.25c-6.38-5.11-11.92-5.54-19.15-1.28-10.65,6-23,25.12-23,35.76,0,9.79,11.07,12.34,23.41,5.53,7.24-4.26,21.28-18.3,34-34.48,8.52-10.64,8.52-10.64,2.13,6.39-3,8.08-4.25,14-4.25,22.13,0,9.79.42,11.07,3.83,14a22.55,22.55,0,0,0,6.81,3.83c13.19,2.13,27.24-5.11,60.44-30.65l1.48-1.16c-2.43,5.44-4,10.7-4,13.93,0,3.41,1.28,5.53,4.69,8.09,3.83,3,6,3.83,11.92,3.83,8.93,0,15.74-2.13,33.62-11.07a347.72,347.72,0,0,0,40.44-23.83c5.11-3.84,8.51-6.39,8.51-7.24C1004.77,174.2,999.24,175.91,985.62,184.84Zm-172,12.35-.42-.43c-11.07,11.07-19.58,16.6-20.86,13.62-2.13-4.68,12.34-27.66,19.58-31.07a13,13,0,0,1,3.41-.85c2.12,0,3.83,1.28,6,4.68S823.44,187,813.65,197.19Z"/><path class="cls-2" d="M959.14,141.87c-.79-2.13-3.06-5.87-9.4-6.92l-.17,0a9,9,0,0,0-1.17-.08c-6.6,0-12.3,8.39-13.89,10.95-1.09,1.77-4.4,7.12-2,12a10,10,0,0,0,9.17,5.64h0c4.53,0,9.46-2.8,13.54-7.69S960.7,146.07,959.14,141.87Zm-9.28,9.35c-4.26,5.11-9.36,6.81-11.07,3.4-1.27-2.55,6.81-13.19,9.79-12.77C953.69,142.7,954.12,146.11,949.86,151.22Z"/></svg>