<svg id="Layer_1" data-name="Layer 1" xmlns="http://www.w3.org/2000/svg" viewBox="0 0 1825.25 507.94"><defs><style>.cls-1{fill:#0069c7;}.cls-2{fill:#16b5fe;}.cls-3{fill:#090909;}</style></defs><path class="cls-1" d="M1150.88,385.08c10.78-39.07,22.95-79.74,30.1-102.53h-.41c-16.51,35.76-62.48,128.11-93.89,191.45h-27.85c4.08-54.81,10.34-154.27,13.93-191.6h-.82c-6,24.71-18.46,71.61-28.15,108.13L1021.66,474H994.71l58.47-213.12h42.93c-3.81,67.06-7.78,142.33-11.37,169.42h.41c11.6-26.57,55.77-113.06,85.53-169.42h42.64L1154.85,474h-28.34Z"/><path class="cls-1" d="M1282.15,260.88,1223.68,474h-28.44l58.47-213.12Z"/><path class="cls-1" d="M1264,474l58.47-213.12h34.7c2.95,55,9.32,158.51,9.13,170.17h.64c6.66-29.52,13.92-60.24,23.39-95l20.55-75.18h27.55L1380,474h-33.72c-2.55-47.79-9.29-158.71-9.55-174.26h-.41c-5.58,27.06-13.33,59.72-23.85,98.18L1291.73,474Z"/><path class="cls-1" d="M1507.38,260.88,1448.91,474h-28.45l58.47-213.12Z"/><path class="cls-1" d="M1489.22,474l58.47-213.12h34.7c3,55,9.32,158.51,9.13,170.17h.64c6.66-29.52,13.92-60.24,23.39-95l20.56-75.18h27.54L1605.18,474h-33.72c-2.55-47.79-9.28-158.71-9.55-174.26h-.41c-5.58,27.06-13.32,59.72-23.84,98.18L1517,474Z"/><path class="cls-1" d="M1754.27,474h-23.39a99.57,99.57,0,0,1,3.56-17.92c-10.71,15.81-25.72,20.77-41.93,20.77-37.62,0-46-23-36-59.66l28.12-102.91c10.14-37.74,26.54-56.53,66.59-56.24,49.59.29,53.3,31.24,46.64,54.64l-1.24,4.44H1768l1.19-5.22c4.68-19.14,2.66-34.52-20.81-34.52-16.66,0-26.84,8.07-34.63,36.58L1685.51,418.2c-6.74,24.86-4.53,39.27,16.88,39.27,24.78,0,33.66-18.71,42.94-52.87l7.22-26.83h-31l5.31-19.49h59.18Z"/><path class="cls-2" d="M1045.8,81.83c-12.77,21.29-38.31,51.93-56.19,68.11-6.81,6-8.09,9.79-3.83,11.07,3.4,1.27,18.73-11.92,35.75-31.08,23.84-26.39,40.44-51.5,47.68-71.93A57.74,57.74,0,0,0,1073,42.67c2.55-22.56-12.77-33.2-42.14-29.79-42.14,4.68-90.24,26-136.21,60-25.12,18.3-41.29,34.47-51.51,51.5-6.38,10.64-6.38,11.07-6.38,23.84s0,13.62,5.53,22.56c11.49,18.73,31.5,32.35,69,46.82,57,22.13,65.12,26.82,65.12,38.31-.42,20-41.71,43.84-96.62,55.76a99.23,99.23,0,0,1-20,2.13c-9.36,0-11.06-.43-14.47-3-10.22-7.66-6.38-18.73,11.92-33.63,20-16.17,41.71-26.81,45.12-22.13,1.7,2.13,6.81,1.7,6.81-.85,0-4.26-5.53-7.67-12.35-7.67-6.38,0-21.28,7.24-36.18,17.46-15.75,10.64-22.56,17-27.24,25.11-7.23,13.2-.42,27.24,15.33,31.07l-.43.43c14.9,3.83,54.06-3.83,83.85-16.18,53.21-22.13,69-50.22,39.17-69.38-4.69-3-23-11.07-41.29-18.3-40.87-16.6-51.51-22.14-63.85-32.78C833,155.47,840.63,127.38,893,85.67c43.85-34.91,96.63-60,136.64-64.7,15.75-2.13,23.84-.86,29,4.25,6.38,6.39,4.68,16.18,1.27,27.24C1057.29,60.55,1053.46,69.07,1045.8,81.83Z"/><path class="cls-2" d="M1517.41,180.16l.85.43c-3.41,2.13-7.66,5.53-13.2,9.79-19.58,15.75-31.5,22.13-41.29,23-5.1.43-6.38,0-8.08-2.12-2.56-3.84-.86-11.5,4.68-21.71,3.83-6.81,4.25-8.52,2.55-10.22-2.55-2.55-4.25-2.13-8.94,1.7l-4.25,3.41-2.13-4.26c-2.56-5.11-7.24-7.66-13.2-7.66a30.82,30.82,0,0,0-13.18,3.54v-.13a8.79,8.79,0,0,0-2.6,1.49c-.13.07-.26.13-.39.21a65,65,0,0,0-12.86,9.76c-1,.78-2,1.51-2.88,2.16-9.37,6.81-24.26,17.87-29,20.85-19.15,11.92-35.75,15.75-42.14,9.79-4.25-3.83-3.4-17,2.13-32.35,4.26-11.49,4.68-12.34,9.79-14,3-.85,9.79-4.26,15.33-7.24,49.8-28.52,83.43-74.49,63.42-86.83-2.13-1.28-3.41-1.71-4.68-1.71s-3,.43-6.39,1.28c-19.15,6-49.8,36.61-69.81,69.81a257.18,257.18,0,0,0-15,28.23c-2.52,1.23-5.79,3.17-10.11,5.82-18.72,11.49-36.6,16.6-50.65,16.6h-6.81l2.13-6c3.83-9.79,3-14.9-3.83-21.28-2.13-1.7-5.54-2.55-8.94-2.55a17.2,17.2,0,0,0-9.37,2.55,38.34,38.34,0,0,1-5.95,3c-1,.32-3.4,2.59-6,5.53-1.74,1.15-3.61,2.42-5.5,3.83-37.45,25.54-60.44,34.48-60.44,23.42,0-1.71,2.13-8.52,4.68-14.9s4.26-12.77,3.83-13.62c-2.12-4.69-6-3-21.28,9.36-17,13.62-29.37,22.56-31.5,22.56s-1.7-6.81.85-12.77c1.28-3,4.69-9.36,7.67-14.47,5.1-8.51,5.53-9.37,3.4-11.07-3.72-3-6.47-1.72-11.94,6.61-2.94,1.63-6.58,3.95-11,7l-.43-.85c-37.46,25.54-60.44,33.63-76.19,30.22-10.22-2.13-11.92-9.36-4.68-21.71,4.25-7.66,15.74-17.45,19.15-16.6a6.63,6.63,0,0,1,2.55,4.26c1.28,5.11,2.56,6.81,6,6.81,7.24,0,3.83-14.47-4.25-17.45-12.77-4.68-31.5,10.21-36.61,29.37-3,10.64,3.83,20.43,14.9,22.56a35.08,35.08,0,0,1,5.53,1.28c6,1.7,23.84-2.13,36.61-7.67a305.57,305.57,0,0,0,40.29-22.2c-3.94,9-4.77,15.82-2,19.22,6.38,7.67,16.17,5.11,34.9-9.79l11.49-9.36-.85,8.51c-.85,7.67,2.13,16.18,14.47,16.6,9.62.39,27.94-7.92,48.34-21.15-4.45,10.21-3.53,18.76,3.17,23.71,5.53,3.83,10.21,4.25,17.87,1.7,5.54-1.7,17-11.07,18.31-14.47.85-1.7,2.55-2.13,9.79-2.13,17.45,0,34.48-4.26,56.61-17l.79-.45c-4,12.07-4.68,21.6-2.07,28.12,2.13,4.68,6.81,9.37,11.07,10.64,10.64,3.41,26.81-.42,46.39-11.49,3.89-2.27,9.21-5.9,14.9-10.09-2.35,6.42-2,11.87,2.12,14.35,7.66,4.68,21.71-.43,41.29-15.33l10.21-7.66v7.24c0,6.38.43,7.66,5.11,11.49,8.52,6.81,19.16,5.53,37.89-5.11,10.21-6,26.39-18.3,34.9-26.81,3-3,4.68-5.11,4.68-6C1527.62,175.05,1525.49,174.63,1517.41,180.16Zm-163-36.18v.43c15.75-23.84,43.84-51.93,57.89-57.89a13.91,13.91,0,0,1,4.26-1.28c.85,0,1.27.43,1.7,1.7,2.13,5.54-6.39,22.14-17.88,34.48-9.79,10.64-26.82,24.69-41.29,34.05-7.23,4.69-14,8.52-14.9,8.52C1342.47,164,1347.15,155.05,1354.39,144Zm-111.94,66.4a26.46,26.46,0,0,1-8.52,6.39c-6.81,3.4-9.79,3.4-11.92-.43s-.85-9.36,3.83-17.45l3.41-6,3.41,4.68c1.7,2.56,5.95,5.11,8.93,7.24l3.83,2.13Zm10.21-18.72h-.42c-.86,3.4-2.13,6.81-3,7.23s-3.41-.42-6-2.13c-3.41-2.55-4.69-4.25-4.69-7.23,0-4.69,4.69-10.22,8.94-10.65h1.28Q1255.22,179.53,1252.66,191.66Zm179.19,7.23-.85-.42c-5.54,4.25-14,9.79-18.73,12.77-11.07,6.38-13.62,6.81-12.35,1.27,3-12.34,26.4-32.35,35.76-31.92a3.25,3.25,0,0,1,2.13.85c.85.42,2.13,3,3,5.53C1442.06,191.23,1441.64,191.66,1431.85,198.89Z"/><path class="cls-2" d="M1788.25,184.84h.42c-27.66,17.88-51.93,28.52-61.29,28.52-10.22,0-9.36-7.23,2.55-26.39,6.39-10.21,7.24-12.34,5.54-14-1.28-1.28-2.56-2.13-3.83-2.13-2.16,0-4.55,2-8,6.52-4.54,2.48-12.89,8.39-29.5,20.72-25.11,18.73-40.86,24.69-43.42,16.17-3.83-11.91,26-81.3,50.23-117.48,6-8.94,6.39-10.64,3-12.77a6.11,6.11,0,0,0-2.55-.85c-3,0-6.81,4.68-15.75,18.31-23.84,36.18-35.76,53.63-44.27,65.12l-8.94,12.34-5.11-4.25c-6.38-5.11-11.92-5.54-19.15-1.28-10.64,6-23,25.12-23,35.76,0,9.79,11.07,12.34,23.41,5.53,7.24-4.26,21.29-18.3,34.06-34.48,8.51-10.64,8.51-10.64,2.12,6.39-3,8.08-4.25,14-4.25,22.13,0,9.79.42,11.07,3.83,14a22.67,22.67,0,0,0,6.81,3.83c13.2,2.13,27.24-5.11,60.44-30.65l1.48-1.16c-2.43,5.44-4,10.7-4,13.93,0,3.41,1.27,5.53,4.68,8.09,3.83,3,6,3.83,11.92,3.83,8.94,0,15.75-2.13,33.62-11.07a347.72,347.72,0,0,0,40.44-23.83c5.11-3.84,8.51-6.39,8.51-7.24C1807.4,174.2,1801.87,175.91,1788.25,184.84Zm-172,12.35-.43-.43c-11.07,11.07-19.58,16.6-20.86,13.62-2.13-4.68,12.35-27.66,19.58-31.07a13,13,0,0,1,3.41-.85c2.13,0,3.83,1.28,6,4.68S1626.08,187,1616.29,197.19Z"/><path d="M735.83,461.88l.43-30.1c54.26,4.24,169.15-29.25,169.15-29.25C834.19,461,735.83,461.88,735.83,461.88Z"/><path d="M501.27,402.53S616.16,436,670.42,431.78l.43,30.1S572.49,461,501.27,402.53Z"/><path d="M705.59,495.51h-5a9,9,0,0,1-8.62-6.45h22.28A9,9,0,0,1,705.59,495.51Z"/><path class="cls-3" d="M687.43,105.85a42,42,0,0,1,6.92,1.37,15.06,15.06,0,0,1,3.39,1.48,5.16,5.16,0,0,1,.68.49l.29.23.38.36c.55.5.94.93,1.38,1.41,3.53,3.85,5.28,8.8,6.19,12.63.47,1.92.74,3.56.92,4.71.08.53.14.94.18,1.25,1.6,18.29.09,47-.58,57.85,5.67,1.57,9.06,8.17,10.89,15.68l102.55-20L715.35,126.85c0-.1-.06-.17-.09-.28-.44-1.23-1.08-3-2-5.06a42.93,42.93,0,0,0-3.8-6.83,28.65,28.65,0,0,0-6.2-6.55c-.61-.46-1.28-1-1.85-1.3l-.45-.29c-.24-.15-.39-.22-.59-.33a8.31,8.31,0,0,0-1.14-.53,17.77,17.77,0,0,0-4.34-1,43.33,43.33,0,0,0-7.41-.1,63.93,63.93,0,0,0-7.06.81A64.67,64.67,0,0,1,687.43,105.85Z"/><path class="cls-3" d="M697.58,189.18c.63-.32,1.24-.6,1.85-.84.4-12.63,1.57-55.36-.73-65a20,20,0,0,0-5.42-9.51C617.55,70.29,507.84,9.34,507.84,9.34S457.24,33,351.54,61.5,18.5,140,18.5,140c47.63,39.5,207.25,99.79,207.25,99.79s-3-39-.48-56.12,29.1-39.74,67-50.74,131.9-40.74,228.16-22.5c71.61,13.57,108,67.7,108,67.7l-4,43.47,61-11.94C686.43,201.24,689.91,193.13,697.58,189.18ZM481.45,32.26,499.08,25l179.11,91.71Z"/><path d="M705.36,202.62s.31,3.51.72,9.68c.28,4.7.73,10.94,1.16,18.32.37,0,.73-.06,1.11-.07,1.2-.05,9.52,2.77,9.24,4.14a32.84,32.84,0,0,0,.54-4.66c.78-14-3.28-42.45-20.35-32.86-13.52,7.59-11.7,25.93-9.69,38.75,2.25-3.46,6.87-4.33,11-4.73,1.83-.18,3.67-.27,5.5-.38.15-7.45.36-13.76.45-18.49C705.19,206.14,705.36,202.62,705.36,202.62Z"/><path d="M708.73,262c6.58,1.9,9.13,4,9.13,4l-1.14-24.18a29.66,29.66,0,0,0-9.12-4.55c0,.18,0,.35,0,.53C708,245.13,708.38,253.3,708.73,262Z"/><path d="M704.49,236.61c-5.21-.77-11.31.27-16.69,6.32l-.73,22.26s9.73-4.18,17.23-4c0-8.38.07-16.26.17-23.33C704.47,237.45,704.48,237,704.49,236.61Z"/><path d="M719.06,411h-2.5l.61-47q0-30.72.07-61.42c0-5.73,3.07-22,0-27.09a18.89,18.89,0,0,0-8.29-7c.06,1.78.13,3.58.19,5.39.21,6.61.42,13.43.63,20.37s.34,14,.51,21,.21,14.1.31,21,.11,13.77.17,20.38c.06,13.22-2.38,51.87-2.38,51.87s-2-38.57-2.48-51.78c-.2-6.6-.5-13.43-.63-20.37s-.34-14-.5-21-.21-14.1-.32-21-.1-13.77-.15-20.37c0-2.25,0-4.46,0-6.65-4.58-.43-10.37,1-17.34,6.34-2.46,1.88.31,24.11.34,27.08q.44,33.06.85,66.11c.19,14.67.65,29.39.45,44.06h-1.54a8,8,0,0,0-8,8v59.56a8,8,0,0,0,8,8h32a8,8,0,0,0,8-8V419A8,8,0,0,0,719.06,411Z"/><path class="cls-3" d="M595.13,162.06c-2.1,30.34-9.46,137-9.51,141.25s-4.91-120.65-6.13-152.22c-22.23-14.28-53.79-29.2-92.34-33-78.92-7.81-139.87,13.23-177.75,20.8S243.81,165.59,238,175.82s-5,32-5,32l8.77,129.52s14-21.6,82.77-26.51,142.69,39.48,142.69,39.48,14.31-9.95,41.48-21.27c40.25-16.76,95.11-4.6,95.11-4.6l12-144.16A174.75,174.75,0,0,0,595.13,162.06ZM258.35,180C250.67,192.86,247,231.42,247,231.42s-6.38-29.35,1.18-51.75c11.46-24,76.35-34.91,76.35-34.91S269.1,161.88,258.35,180Z"/><path class="cls-2" d="M1761.77,141.87c-.79-2.13-3.06-5.87-9.4-6.92l-.16,0a9.2,9.2,0,0,0-1.17-.08c-6.61,0-12.31,8.39-13.9,10.95-1.08,1.77-4.4,7.12-2,12a10,10,0,0,0,9.16,5.64h0c4.53,0,9.47-2.8,13.54-7.69S1763.33,146.07,1761.77,141.87Zm-9.28,9.35c-4.25,5.11-9.36,6.81-11.06,3.4-1.28-2.55,6.81-13.19,9.79-12.77C1756.32,142.7,1756.75,146.11,1752.49,151.22Z"/></svg>